<?xml version="1.0" encoding="utf-8"?>
<svg style="background:transparent;" xmlns="http://www.w3.org/2000/svg" viewBox="0 300 3473 450" width="300" height="50" preserveAspectRatio="none"><g transform="matrix(0.10000000149011612, 0, 0, -0.10000000149011612, 0, 1018)" fill="#ffffff" stroke="none" id="object-0"><path d="M26257 6229 c-94 -22 -192 -93 -245 -177 -49 -77 -65 -142 -60 -241 7 -153 83 -272 220 -343 60 -31 68 -33 173 -33 103 0 114 2 177 32 126 59 204 161 229 296 51 278 -217 531 -494 466z" style="fill: #ffffff;"/><path d="M11994 6220 c-213 -31 -366 -244 -335 -465 20 -139 103 -255 225 -315 92 -45 208 -53 304 -21 133 45 227 134 269 254 24 70 24 204 0 274 -65 186 -262 302 -463 273z" style="fill: #ffffff;"/><path d="M17840 6219 c-124 -21 -237 -109 -294 -228 -29 -62 -31 -73 -31 -181 0 -104 3 -121 27 -173 63 -135 196 -227 341 -235 186 -11 337 78 415 245 24 52 27 69 27 163 0 94 -3 111 -28 164 -84 181 -264 277 -457 245z" style="fill: #ffffff;"/><path d="M16926 3550 c-8 -19 -35 -82 -59 -140 l-46 -105 116 -3 c64 -1 118 0 121 2 4 5 -85 223 -109 266 -6 12 -11 7 -23 -20z" style="fill: #ffffff;"/><path d="M12660 3530 l0 -110 79 0 c92 0 123 18 142 80 10 32 9 44 -7 76 -25 51 -54 64 -141 64 l-73 0 0 -110z" style="fill: #ffffff;"/><path d="M19080 3380 l0 -260 111 0 c61 0 120 5 132 11 12 6 41 30 65 52 121 117 104 333 -32 425 -47 31 -50 32 -162 32 l-114 0 0 -260z" style="fill: #ffffff;"/><path d="M25120 3530 l0 -110 81 0 c79 0 82 1 115 34 28 28 34 42 34 76 0 34 -6 48 -34 76 -33 33 -36 34 -115 34 l-81 0 0 -110z" style="fill: #ffffff;"/><path d="M26249 3612 c-188 -98 -186 -372 3 -466 102 -51 244 -26 312 55 116 137 77 343 -79 415 -74 35 -165 33 -236 -4z" style="fill: #ffffff;"/></g></svg>