<?xml version="1.0" encoding="utf-8"?>
<svg xmlns="http://www.w3.org/2000/svg" viewBox="0 0 3472.0001 1018" width="3472pt" height="1018pt" preserveAspectRatio="none"><g transform="matrix(0.10000000149011612, 0, 0, -0.10000000149011612, 0, 1018)" fill="#000000" stroke="none" id="object-0"><path d="M0 5090 l0 -5090 17360 0 17360 0 0 5090 0 5090 -17360 0 -17360 0 0 -5090z m5532 2706 c163 -41 285 -115 356 -214 53 -75 64 -137 36 -219 -53 -160 -250 -284 -494 -315 -104 -13 -310 -4 -405 16 -305 67 -565 234 -565 363 0 87 102 188 275 273 185 91 302 114 596 118 83 2 127 -3 201 -22z m528 -93 c311 -116 589 -278 842 -491 89 -76 104 -110 102 -232 -3 -203 -152 -395 -429 -553 -657 -374 -1900 -352 -2700 50 -216 108 -385 251 -450 379 -41 81 -41 173 -1 255 59 118 172 227 342 328 82 50 244 131 259 131 2 0 -1 -15 -6 -32 -14 -50 -11 -167 6 -233 26 -96 74 -181 148 -261 192 -206 457 -295 836 -281 454 17 878 225 1002 492 72 155 53 306 -56 449 -42 55 -48 55 105 -1z m5080 -808 l0 -215 -305 0 -305 0 0 -815 0 -815 -235 0 -235 0 0 815 0 815 -310 0 -310 0 0 215 0 215 850 0 850 0 0 -215z m10510 -815 l0 -1030 -235 0 -235 0 0 1030 0 1030 235 0 235 0 0 -1030z m3748 838 l-3 -193 -207 -3 -208 -2 0 195 0 195 210 0 210 0 -2 -192z m2362 -139 l0 -331 35 30 c91 81 224 131 365 139 303 18 533 -145 612 -434 20 -74 22 -105 26 -605 l4 -528 -211 0 -211 0 0 443 c0 546 -5 580 -97 669 -49 48 -108 68 -199 68 -144 0 -257 -72 -303 -193 -20 -56 -21 -72 -21 -522 l0 -465 -215 0 -215 0 0 1030 0 1030 215 0 215 0 0 -331z m-20525 96 c197 -242 333 -475 456 -784 l30 -74 -35 -56 c-117 -191 -355 -379 -669 -531 -203 -98 -363 -156 -609 -220 -390 -101 -679 -134 -1158 -134 -413 -1 -640 21 -1012 95 -500 99 -1012 316 -1283 542 -189 158 -284 282 -341 445 l-23 67 80 153 c71 138 150 264 251 405 l35 47 31 -82 c48 -127 98 -202 207 -316 264 -276 709 -462 1260 -528 180 -21 543 -29 725 -15 579 45 1146 215 1498 449 261 174 422 391 439 594 7 82 3 84 118 -57z m22345 -85 l0 -200 190 0 190 0 0 -185 0 -185 -190 0 -190 0 0 -327 c0 -343 5 -389 43 -432 38 -42 77 -51 212 -51 l125 0 0 -181 0 -181 -197 4 c-179 4 -206 7 -275 30 -138 46 -221 115 -274 227 -46 96 -53 174 -54 559 l0 352 -110 0 -110 0 0 185 0 185 110 0 110 0 0 200 0 200 210 0 210 0 0 -200z m-14024 -190 c94 -24 168 -67 239 -137 l52 -52 24 25 c48 51 169 123 252 149 110 35 251 43 367 21 177 -33 320 -137 394 -287 64 -130 66 -153 66 -741 l0 -528 -205 0 -205 0 0 448 c0 479 -4 535 -48 615 -28 53 -94 103 -149 113 -117 22 -246 -22 -309 -105 -63 -81 -64 -94 -64 -608 l0 -463 -210 0 -209 0 -3 493 -3 492 -24 53 c-43 96 -120 142 -239 142 -85 0 -160 -30 -210 -84 -91 -98 -92 -106 -92 -643 l0 -453 -210 0 -210 0 0 770 0 770 205 0 205 0 0 -70 c0 -38 3 -70 6 -70 3 0 24 15 46 34 138 119 346 164 534 116z m4366 5 c212 -44 368 -198 430 -422 20 -74 22 -105 26 -605 l4 -528 -211 0 -211 0 0 443 c0 546 -5 580 -97 669 -49 48 -108 68 -199 68 -144 0 -257 -72 -303 -193 -20 -56 -21 -72 -21 -522 l0 -465 -215 0 -215 0 0 770 0 770 210 0 210 0 0 -74 0 -74 38 35 c50 46 182 110 262 127 87 19 203 19 292 1z m2931 1 c224 -43 396 -217 442 -448 12 -63 15 -169 15 -593 l0 -515 -204 0 -204 0 -4 478 c-5 549 -3 539 -92 627 -64 64 -113 79 -228 73 -132 -7 -221 -66 -274 -180 l-29 -63 -3 -467 -3 -468 -210 0 -209 0 0 770 0 770 210 0 210 0 0 -70 0 -70 68 49 c150 107 324 143 515 107z m3597 0 c95 -17 177 -46 241 -85 27 -17 51 -31 54 -31 3 0 5 23 5 50 l0 50 210 0 211 0 -3 -767 -3 -768 -28 -80 c-41 -115 -81 -180 -161 -261 -148 -148 -331 -220 -591 -231 -275 -12 -499 63 -676 225 -66 61 -116 129 -103 142 5 5 71 51 148 102 l138 94 62 -61 c103 -100 227 -148 391 -148 243 -2 390 102 403 286 3 37 2 67 0 67 -3 0 -31 -16 -63 -35 -161 -96 -409 -122 -600 -61 -126 41 -219 98 -316 195 -97 97 -153 187 -196 316 -24 73 -27 94 -27 235 -1 144 1 160 27 235 114 326 405 541 737 544 36 0 99 -6 140 -13z m-14219 -25 c42 -11 110 -37 150 -58 41 -21 77 -39 82 -41 4 -2 7 21 7 52 l0 56 215 0 215 0 0 -770 0 -770 -215 0 -215 0 0 49 0 49 -77 -39 c-115 -58 -214 -80 -358 -80 -319 0 -572 155 -715 440 -53 107 -73 198 -73 346 -1 153 13 216 78 350 113 233 331 394 590 436 75 12 230 2 316 -20z m1641 14 c274 -48 448 -209 492 -457 l7 -38 -210 0 -211 0 -6 28 c-28 126 -78 162 -226 162 -144 0 -215 -36 -224 -115 -11 -90 55 -133 261 -171 346 -65 461 -104 550 -186 132 -121 158 -338 62 -521 -57 -109 -186 -201 -349 -248 -105 -30 -358 -38 -483 -14 -272 51 -461 222 -491 444 l-7 51 215 0 215 0 6 -40 c11 -82 82 -139 203 -161 108 -20 204 1 266 59 35 32 43 71 24 116 -23 55 -87 80 -302 116 -98 16 -210 39 -249 51 -159 48 -253 120 -308 237 -28 59 -32 79 -35 174 -6 157 29 250 135 353 144 143 406 205 665 160z m4213 -15 c44 -11 114 -37 155 -57 41 -21 78 -39 83 -41 4 -2 7 21 7 52 l0 56 210 0 210 0 0 -770 0 -770 -210 0 -210 0 0 51 c0 28 -3 49 -7 47 -5 -1 -42 -20 -83 -41 -113 -56 -212 -78 -355 -78 -140 0 -240 21 -350 75 -248 122 -406 353 -435 636 -43 413 250 795 659 860 82 13 234 4 326 -20z m6185 20 c97 -16 211 -56 277 -99 117 -76 203 -203 229 -338 l12 -63 -212 2 -211 3 -6 36 c-8 51 -39 100 -79 123 -42 25 -192 34 -259 16 -95 -25 -136 -105 -91 -178 30 -49 83 -67 334 -117 131 -26 257 -57 303 -74 185 -72 273 -195 273 -381 0 -321 -251 -510 -680 -510 -172 0 -289 23 -406 80 -169 82 -292 251 -294 403 l0 27 209 0 209 0 11 -44 c22 -90 91 -139 220 -158 160 -24 287 39 284 139 -2 80 -79 116 -333 157 -181 29 -269 54 -363 103 -121 64 -188 165 -208 314 -38 278 159 503 489 559 69 11 218 11 292 0z m6730 -20 c214 -61 355 -196 405 -387 26 -101 44 -93 -193 -93 l-207 0 -13 52 c-23 99 -87 137 -227 138 -74 0 -99 -4 -142 -24 -28 -14 -56 -33 -62 -45 -18 -33 -13 -96 10 -125 40 -51 88 -67 359 -117 370 -68 512 -168 543 -387 13 -83 -1 -186 -33 -260 -69 -156 -235 -264 -464 -303 -88 -15 -359 -6 -440 15 -239 61 -410 233 -440 444 l-6 42 214 0 213 0 7 -40 c7 -47 53 -103 105 -130 52 -26 153 -44 216 -37 111 11 185 68 185 143 0 77 -71 112 -312 154 -304 53 -397 89 -492 190 -117 125 -140 344 -55 511 28 56 115 145 179 184 66 40 145 70 240 90 95 21 312 13 410 -15z m-5600 -760 l0 -770 -210 0 -210 0 0 770 0 770 210 0 210 0 0 -770z m-17596 -115 c47 -225 60 -353 59 -595 0 -180 -4 -254 -22 -370 -12 -80 -25 -155 -28 -168 -11 -47 -241 -206 -442 -307 -424 -213 -924 -341 -1596 -407 -199 -20 -844 -16 -1070 5 -677 66 -1204 202 -1662 429 -295 146 -520 319 -629 483 -31 46 -34 59 -42 160 -10 143 1 444 23 593 10 64 19 119 21 121 2 2 50 -41 106 -95 163 -158 332 -270 598 -398 401 -191 898 -311 1479 -356 300 -23 810 -9 1096 30 725 99 1385 348 1765 665 92 78 223 212 274 283 21 29 40 52 41 50 2 -2 15 -57 29 -123z m-64 -1420 c0 -3 -19 -56 -41 -118 -99 -269 -234 -508 -428 -755 -73 -94 -118 -124 -286 -192 -346 -141 -745 -230 -1227 -275 -193 -18 -626 -21 -856 -5 -678 44 -1304 204 -1717 438 -306 173 -462 346 -480 531 -3 36 -9 78 -11 93 l-5 27 113 -53 c404 -191 920 -323 1508 -387 279 -30 842 -38 1139 -15 846 66 1586 275 2104 596 62 38 126 81 142 94 29 24 45 32 45 21z m9228 -567 c18 -23 272 -626 272 -647 0 -23 -45 -40 -60 -25 -5 5 -25 45 -44 89 l-35 80 -158 3 -158 2 -36 -87 c-31 -74 -41 -88 -61 -91 -14 -2 -31 4 -38 13 -11 13 7 62 120 328 73 172 140 320 148 330 18 20 36 22 50 5z m6200 3 c10 -5 62 -120 122 -270 58 -143 108 -257 111 -253 4 4 53 119 108 257 56 137 108 257 116 265 20 19 49 2 52 -31 3 -31 -240 -631 -261 -644 -11 -7 -22 -6 -33 1 -15 9 -273 620 -273 646 0 8 29 38 36 38 3 0 13 -4 22 -9z m-13360 -13 c18 -18 14 -46 -7 -58 -11 -5 -78 -10 -150 -10 l-131 0 0 -105 0 -105 113 0 c102 0 116 -2 133 -21 14 -15 16 -24 8 -37 -9 -14 -31 -17 -133 -20 l-121 -3 0 -114 0 -115 134 0 c109 0 138 -3 150 -16 19 -19 20 -36 4 -52 -17 -17 -339 -17 -356 0 -16 16 -17 620 -2 649 10 18 23 19 178 19 117 0 172 -4 180 -12z m715 -20 c14 -18 87 -132 163 -253 l139 -220 3 239 c1 156 6 244 13 253 17 19 47 16 59 -6 6 -12 10 -132 10 -321 0 -189 -4 -309 -10 -321 -6 -10 -21 -19 -35 -19 -20 0 -47 37 -182 252 l-158 252 -3 -247 -2 -247 -27 -6 c-51 -13 -53 1 -53 334 0 190 4 311 10 323 16 29 46 23 73 -13z m1427 13 c13 -26 4 -48 -23 -55 -12 -3 -77 -6 -144 -6 l-123 0 0 -105 0 -105 110 0 c97 0 112 -2 130 -20 16 -16 18 -25 10 -40 -10 -18 -21 -20 -130 -20 l-120 0 0 -115 0 -115 129 0 c113 0 132 -2 152 -19 20 -16 22 -23 13 -38 -10 -16 -29 -18 -179 -21 -115 -2 -172 1 -181 9 -19 16 -21 638 -2 657 8 8 63 12 180 12 155 0 168 -1 178 -19z m906 0 c109 -50 142 -190 67 -289 -24 -32 -89 -72 -118 -72 -8 0 -15 -2 -15 -4 0 -3 34 -62 77 -132 80 -134 85 -156 32 -162 -22 -3 -35 14 -114 147 -118 197 -124 198 -127 10 -3 -122 -5 -143 -20 -153 -13 -8 -23 -8 -35 0 -16 10 -18 39 -21 329 -2 226 1 322 9 331 19 23 213 19 265 -5z m1197 -10 c24 -12 61 -36 82 -54 30 -26 36 -37 31 -54 -11 -35 -44 -39 -74 -10 -72 69 -202 88 -297 43 -255 -118 -167 -495 116 -496 52 0 77 6 120 28 l54 27 3 83 3 82 -89 0 c-99 0 -126 11 -120 51 3 24 4 24 132 27 86 2 133 -1 142 -9 11 -9 14 -42 14 -134 l0 -124 -37 -31 c-62 -50 -119 -73 -198 -78 -129 -8 -241 46 -312 152 -126 187 -31 450 185 512 67 19 190 12 245 -15z m783 21 c6 -4 49 -74 94 -155 46 -81 86 -144 91 -140 4 4 42 71 85 148 42 77 82 143 88 147 20 14 45 8 56 -12 9 -17 -5 -49 -95 -208 l-105 -188 0 -127 c0 -77 -4 -128 -11 -132 -5 -4 -21 -4 -35 -1 -24 6 -24 7 -24 135 l0 128 -100 178 c-92 163 -111 210 -93 228 8 9 35 9 49 -1z m3244 -243 l155 -247 5 237 c3 130 9 242 13 249 11 16 42 15 56 -2 8 -9 11 -105 9 -331 -3 -290 -5 -319 -20 -329 -13 -7 -23 -8 -34 -1 -9 6 -85 120 -170 254 l-154 244 -2 -243 c-3 -219 -5 -244 -20 -254 -13 -8 -23 -8 -35 0 -16 10 -18 39 -21 329 -2 232 1 321 9 332 30 36 52 11 209 -238z m1257 236 c68 -20 143 -91 180 -170 25 -53 28 -72 28 -155 0 -78 -4 -104 -23 -144 -36 -78 -86 -132 -155 -166 -62 -31 -63 -31 -212 -28 l-150 3 -3 324 c-2 230 1 328 9 337 17 20 258 19 326 -1z m2071 3 c16 -16 15 -33 -4 -52 -12 -13 -41 -16 -150 -16 l-134 0 0 -105 0 -105 109 0 c93 0 112 -3 132 -19 20 -16 22 -23 13 -38 -10 -15 -28 -18 -133 -21 l-121 -3 0 -114 0 -115 134 0 c109 0 138 -3 150 -16 19 -19 20 -36 4 -52 -17 -17 -339 -17 -356 0 -9 9 -12 96 -12 328 0 232 3 319 12 328 17 17 339 17 356 0z m715 -20 c14 -18 75 -114 137 -213 62 -99 125 -198 139 -220 l26 -40 5 250 5 250 30 0 30 0 0 -335 0 -335 -29 0 c-26 0 -40 18 -185 248 l-156 249 -3 -238 c-1 -155 -6 -242 -13 -251 -17 -19 -47 -16 -59 6 -6 12 -10 132 -10 321 0 189 4 309 10 321 16 29 46 23 73 -13z m2236 18 c8 -9 11 -105 9 -331 -3 -290 -5 -319 -20 -329 -13 -8 -23 -8 -35 0 -16 10 -18 39 -21 323 -1 204 1 319 8 331 12 23 42 26 59 6z m961 -8 c94 -48 136 -155 95 -241 -22 -47 -87 -106 -125 -114 -17 -3 -30 -9 -30 -12 0 -4 32 -61 70 -126 39 -65 69 -125 68 -133 -4 -20 -32 -36 -50 -30 -8 3 -54 72 -102 153 -114 191 -119 191 -126 -5 l-5 -145 -30 0 -30 0 -3 325 c-1 179 0 330 3 337 3 9 35 13 113 13 92 0 114 -3 152 -22z m1197 -9 c62 -30 132 -101 163 -164 21 -42 25 -64 25 -145 0 -79 -4 -103 -23 -142 -35 -70 -96 -134 -160 -165 -50 -25 -68 -28 -152 -28 -84 0 -101 3 -147 28 -76 39 -115 78 -153 149 -100 188 -5 416 203 484 62 20 184 12 244 -17z m1073 -220 l155 -247 5 237 c3 130 9 242 13 249 11 16 42 15 56 -2 8 -9 11 -105 9 -331 -3 -290 -5 -319 -20 -329 -13 -7 -23 -8 -34 -1 -9 6 -86 120 -170 254 l-154 244 -2 -243 c-3 -219 -5 -244 -20 -254 -13 -8 -23 -8 -35 0 -16 10 -18 39 -21 329 -2 232 1 321 9 332 30 35 52 11 209 -238z m977 243 c7 -4 71 -129 144 -277 l131 -270 137 275 c91 183 143 276 155 278 45 9 46 -2 46 -337 0 -329 -1 -341 -42 -341 -33 0 -38 34 -38 257 l0 217 -106 -219 c-59 -121 -114 -228 -122 -237 -37 -43 -48 -29 -172 225 l-119 242 -1 -237 0 -238 -26 -6 c-15 -4 -30 -2 -37 5 -16 16 -23 605 -8 644 10 27 34 34 58 19z m1647 2 c22 -9 20 -51 -3 -64 -11 -5 -78 -10 -150 -10 l-131 0 0 -105 0 -105 111 0 c116 0 149 -9 149 -39 0 -33 -24 -40 -141 -43 l-114 -3 -3 -112 -3 -113 131 0 c72 0 140 -5 151 -10 27 -15 25 -58 -3 -65 -13 -3 -95 -4 -183 -3 l-160 3 -3 325 c-1 179 0 330 3 337 3 10 46 13 169 13 90 0 171 -3 180 -6z m864 -247 l157 -247 5 241 c4 216 7 243 23 253 12 8 22 8 35 0 16 -10 17 -37 17 -334 0 -297 -1 -324 -17 -334 -13 -8 -23 -8 -35 0 -10 6 -85 118 -168 248 l-150 238 -5 -236 c-3 -161 -9 -239 -17 -247 -7 -7 -22 -9 -37 -5 l-26 6 0 323 c0 446 -3 445 218 94z m1270 241 c18 -18 14 -46 -7 -58 -11 -5 -51 -10 -90 -10 l-71 0 0 -295 0 -295 -27 -6 c-50 -13 -53 2 -53 313 l0 283 -66 0 c-36 0 -74 5 -85 10 -18 10 -26 50 -12 63 12 13 398 8 411 -5z m-25518 -742 c0 -9 -183 -138 -281 -199 -399 -246 -826 -375 -1307 -396 -491 -22 -950 78 -1382 300 -111 57 -242 136 -209 126 118 -37 463 -95 729 -122 214 -22 722 -31 935 -16 579 40 1108 149 1513 310 1 1 2 -1 2 -3z" style="fill: none;"/><path d="M26257 6229 c-94 -22 -192 -93 -245 -177 -49 -77 -65 -142 -60 -241 7 -153 83 -272 220 -343 60 -31 68 -33 173 -33 103 0 114 2 177 32 126 59 204 161 229 296 51 278 -217 531 -494 466z" style="fill: none;"/><path d="M11994 6220 c-213 -31 -366 -244 -335 -465 20 -139 103 -255 225 -315 92 -45 208 -53 304 -21 133 45 227 134 269 254 24 70 24 204 0 274 -65 186 -262 302 -463 273z" style="fill: none;"/><path d="M17840 6219 c-124 -21 -237 -109 -294 -228 -29 -62 -31 -73 -31 -181 0 -104 3 -121 27 -173 63 -135 196 -227 341 -235 186 -11 337 78 415 245 24 52 27 69 27 163 0 94 -3 111 -28 164 -84 181 -264 277 -457 245z" style="fill: none;"/><path d="M16926 3550 c-8 -19 -35 -82 -59 -140 l-46 -105 116 -3 c64 -1 118 0 121 2 4 5 -85 223 -109 266 -6 12 -11 7 -23 -20z" style="fill: none;"/><path d="M12660 3530 l0 -110 79 0 c92 0 123 18 142 80 10 32 9 44 -7 76 -25 51 -54 64 -141 64 l-73 0 0 -110z" style="fill: none;"/><path d="M19080 3380 l0 -260 111 0 c61 0 120 5 132 11 12 6 41 30 65 52 121 117 104 333 -32 425 -47 31 -50 32 -162 32 l-114 0 0 -260z" style="fill: none;"/><path d="M25120 3530 l0 -110 81 0 c79 0 82 1 115 34 28 28 34 42 34 76 0 34 -6 48 -34 76 -33 33 -36 34 -115 34 l-81 0 0 -110z" style="fill: none;"/><path d="M26249 3612 c-188 -98 -186 -372 3 -466 102 -51 244 -26 312 55 116 137 77 343 -79 415 -74 35 -165 33 -236 -4z" style="fill: none;"/></g></svg>